<?plantuml 1.2026.2beta3?><svg xmlns="http://www.w3.org/2000/svg" xmlns:xlink="http://www.w3.org/1999/xlink" contentStyleType="text/css" data-diagram-type="DESCRIPTION" height="462px" preserveAspectRatio="none" style="width:1113px;height:462px;background:#1B1B1B;" version="1.1" viewBox="0 0 1113 462" width="1113px" zoomAndPan="magnify"><defs/><g><rect fill="#1B1B1B" height="462" style="stroke:none;stroke-width:1;" width="1113" x="0" y="0"/><!--entity User--><g class="entity" data-qualified-name="User" data-source-line="4" id="ent0002"><ellipse cx="116.2466" cy="114.85" fill="#313139" rx="8" ry="8" style="stroke:#E7E7E7;stroke-width:0.5;"/><path d="M116.2466,122.85 L116.2466,149.85 M103.2466,130.85 L129.2466,130.85 M116.2466,149.85 L103.2466,164.85 M116.2466,149.85 L129.2466,164.85" fill="none" style="stroke:#E7E7E7;stroke-width:0.5;"/><text fill="#FFFFFF" font-family="sans-serif" font-size="14" lengthAdjust="spacing" textLength="31.9102" x="6" y="179.3451">User</text><text fill="#FFFFFF" font-family="sans-serif" font-size="14" lengthAdjust="spacing" textLength="220.4932" x="6" y="195.642">(Admin / Operator / Supervisor)</text></g><!--entity Sensors--><g class="entity" data-qualified-name="Sensors" data-source-line="5" id="ent0003"><ellipse cx="116.2511" cy="254" fill="#313139" rx="8" ry="8" style="stroke:#E7E7E7;stroke-width:0.5;"/><path d="M116.2511,262 L116.2511,289 M103.2511,270 L129.2511,270 M116.2511,289 L103.2511,304 M116.2511,289 L129.2511,304" fill="none" style="stroke:#E7E7E7;stroke-width:0.5;"/><text fill="#FFFFFF" font-family="sans-serif" font-size="14" lengthAdjust="spacing" textLength="55.2822" x="88.61" y="318.4951">Sensors</text></g><!--entity Machine--><g class="entity" data-qualified-name="Machine" data-source-line="6" id="ent0004"><ellipse cx="1024.0896" cy="14" fill="#313139" rx="8" ry="8" style="stroke:#E7E7E7;stroke-width:0.5;"/><path d="M1024.0896,22 L1024.0896,49 M1011.0896,30 L1037.0896,30 M1024.0896,49 L1011.0896,64 M1024.0896,49 L1037.0896,64" fill="none" style="stroke:#E7E7E7;stroke-width:0.5;"/><text fill="#FFFFFF" font-family="sans-serif" font-size="14" lengthAdjust="spacing" textLength="98.2393" x="974.97" y="78.4951">Machine / PLC</text></g><!--entity Notify--><g class="entity" data-qualified-name="Notify" data-source-line="7" id="ent0005"><ellipse cx="1024.0903" cy="137" fill="#313139" rx="8" ry="8" style="stroke:#E7E7E7;stroke-width:0.5;"/><path d="M1024.0903,145 L1024.0903,172 M1011.0903,153 L1037.0903,153 M1024.0903,172 L1011.0903,187 M1024.0903,172 L1037.0903,187" fill="none" style="stroke:#E7E7E7;stroke-width:0.5;"/><text fill="#FFFFFF" font-family="sans-serif" font-size="14" lengthAdjust="spacing" textLength="136.5205" x="955.83" y="201.4951">Notification Service</text></g><!--entity System--><g class="entity" data-qualified-name="System" data-source-line="9" id="ent0006"><rect fill="#313139" height="36.2969" rx="7.5" ry="7.5" style="stroke:#E7E7E7;stroke-width:0.5;" width="363.4033" x="402.49" y="208.5"/><text fill="#FFFFFF" font-family="sans-serif" font-size="14" lengthAdjust="spacing" textLength="343.4033" x="412.49" y="231.4951">Digital Twin-Based Industrial Automation System</text></g><!--entity D1--><g class="entity" data-qualified-name="D1" data-source-line="11" id="ent0007"><path d="M979.2,250 C979.2,240 1024.094,240 1024.094,240 C1024.094,240 1068.9881,240 1068.9881,250 L1068.9881,275.2969 C1068.9881,285.2969 1024.094,285.2969 1024.094,285.2969 C1024.094,285.2969 979.2,285.2969 979.2,275.2969 L979.2,250" fill="#313139" style="stroke:#E7E7E7;stroke-width:0.5;"/><path d="M979.2,250 C979.2,260 1024.094,260 1024.094,260 C1024.094,260 1068.9881,260 1068.9881,250" fill="none" style="stroke:#E7E7E7;stroke-width:0.5;"/><text fill="#FFFFFF" font-family="sans-serif" font-size="14" lengthAdjust="spacing" textLength="69.7881" x="989.2" y="276.9951">User Data</text></g><!--entity D2--><g class="entity" data-qualified-name="D2" data-source-line="12" id="ent0008"><path d="M997.82,330 C997.82,320 1024.0929,320 1024.0929,320 C1024.0929,320 1050.3659,320 1050.3659,330 L1050.3659,355.2969 C1050.3659,365.2969 1024.0929,365.2969 1024.0929,365.2969 C1024.0929,365.2969 997.82,365.2969 997.82,355.2969 L997.82,330" fill="#313139" style="stroke:#E7E7E7;stroke-width:0.5;"/><path d="M997.82,330 C997.82,340 1024.0929,340 1024.0929,340 C1024.0929,340 1050.3659,340 1050.3659,330" fill="none" style="stroke:#E7E7E7;stroke-width:0.5;"/><text fill="#FFFFFF" font-family="sans-serif" font-size="14" lengthAdjust="spacing" textLength="32.5459" x="1007.82" y="356.9951">Logs</text></g><!--entity D3--><g class="entity" data-qualified-name="D3" data-source-line="13" id="ent0009"><path d="M951.9,410 C951.9,400 1024.0934,400 1024.0934,400 C1024.0934,400 1096.2867,400 1096.2867,410 L1096.2867,435.2969 C1096.2867,445.2969 1024.0934,445.2969 1024.0934,445.2969 C1024.0934,445.2969 951.9,445.2969 951.9,435.2969 L951.9,410" fill="#313139" style="stroke:#E7E7E7;stroke-width:0.5;"/><path d="M951.9,410 C951.9,420 1024.0934,420 1024.0934,420 C1024.0934,420 1096.2867,420 1096.2867,410" fill="none" style="stroke:#E7E7E7;stroke-width:0.5;"/><text fill="#FFFFFF" font-family="sans-serif" font-size="14" lengthAdjust="spacing" textLength="124.3867" x="961.9" y="436.9951">Automation Rules</text></g><!--link User to System--><g class="link" data-entity-1="ent0002" data-entity-2="ent0006" data-link-type="dependency" data-source-line="15" id="lnk10"><path d="M226.94,160.86 C272.18,165.01 325.02,170.86 372.49,178.65 C419.14,186.31 465.0829,196.6302 505.6329,206.5802" fill="none" id="User-to-System" style="stroke:#E7E7E7;stroke-width:1;"/><polygon fill="#E7E7E7" points="511.46,208.01,503.6725,201.9805,506.6041,206.8185,501.7661,209.75,511.46,208.01" style="stroke:#E7E7E7;stroke-width:1;"/><text fill="#FFFFFF" font-family="sans-serif" font-size="13" lengthAdjust="spacing" textLength="35.2993" x="296.876" y="145.7169">Login</text><text fill="#FFFFFF" font-family="sans-serif" font-size="13" lengthAdjust="spacing" textLength="85.0713" x="271.99" y="160.8497">Control Input</text></g><!--link System to User--><g class="link" data-entity-1="ent0006" data-entity-2="ent0002" data-link-type="dependency" data-source-line="16" id="lnk11"><path d="M462.52,245.28 C400.02,250.93 323.04,251.6 256.49,233.65 C230.3,226.59 209.0864,216.3841 186.4764,202.5341" fill="none" id="System-to-User" style="stroke:#E7E7E7;stroke-width:1;"/><polygon fill="#E7E7E7" points="181.36,199.4,186.9452,207.5121,185.6237,202.0117,191.124,200.6902,181.36,199.4" style="stroke:#E7E7E7;stroke-width:1;"/><text fill="#FFFFFF" font-family="sans-serif" font-size="13" lengthAdjust="spacing" textLength="86.5313" x="271.2898" y="199.7169">Visualization,</text><text fill="#FFFFFF" font-family="sans-serif" font-size="13" lengthAdjust="spacing" textLength="45.5571" x="291.7769" y="214.8497">Status,</text><text fill="#FFFFFF" font-family="sans-serif" font-size="13" lengthAdjust="spacing" textLength="114.1309" x="257.49" y="229.9825">Simulation Result</text></g><!--link Sensors to System--><g class="link" data-entity-1="ent0003" data-entity-2="ent0006" data-link-type="dependency" data-source-line="18" id="lnk12"><path d="M144.2,284.4 C172.25,285.15 217.44,286.23 256.49,286.65 C308.05,287.21 321.43,293.78 372.49,286.65 C428.62,278.82 485.1183,261.7374 527.2783,247.1874" fill="none" id="Sensors-to-System" style="stroke:#E7E7E7;stroke-width:1;"/><polygon fill="#E7E7E7" points="532.95,245.23,523.1375,244.3849,528.2236,246.8612,525.7473,251.9473,532.95,245.23" style="stroke:#E7E7E7;stroke-width:1;"/><text fill="#FFFFFF" font-family="sans-serif" font-size="13" lengthAdjust="spacing" textLength="79.7329" x="274.99" y="282.7169">Sensor Data</text></g><!--link Machine to System--><g class="link" data-entity-1="ent0004" data-entity-2="ent0006" data-link-type="dependency" data-source-line="19" id="lnk13"><path d="M980.7,82.1 C963.45,96.15 942.69,111.16 921.9,121.65 C869.9,147.9 851.58,140.59 795.9,157.65 C742.72,173.95 688.1285,191.9218 645.7085,206.1518" fill="none" id="Machine-to-System" style="stroke:#E7E7E7;stroke-width:1;"/><polygon fill="#E7E7E7" points="640.02,208.06,649.8249,208.99,644.7604,206.4698,647.2806,201.4053,640.02,208.06" style="stroke:#E7E7E7;stroke-width:1;"/><text fill="#FFFFFF" font-family="sans-serif" font-size="13" lengthAdjust="spacing" textLength="4.1323" x="857.3216" y="87.7169">&#160;</text><text fill="#FFFFFF" font-family="sans-serif" font-size="13" lengthAdjust="spacing" textLength="4.1323" x="857.3216" y="102.8497">&#160;</text><text fill="#FFFFFF" font-family="sans-serif" font-size="13" lengthAdjust="spacing" textLength="99.9756" x="809.4" y="117.9825">Machine Status</text></g><!--link System to Machine--><g class="link" data-entity-1="ent0006" data-entity-2="ent0004" data-link-type="dependency" data-source-line="20" id="lnk14"><path d="M603.15,208.06 C637.17,174.15 714.88,102.8 795.9,70.65 C854.41,47.43 921.5601,42.6481 968.7901,42.3481" fill="none" id="System-to-Machine" style="stroke:#E7E7E7;stroke-width:1;"/><polygon fill="#E7E7E7" points="974.79,42.31,965.7648,38.3672,969.7901,42.3418,965.8156,46.3671,974.79,42.31" style="stroke:#E7E7E7;stroke-width:1;"/><text fill="#FFFFFF" font-family="sans-serif" font-size="13" lengthAdjust="spacing" textLength="124.998" x="796.9" y="41.7169">Control Commands</text></g><!--link System to Notify--><g class="link" data-entity-1="ent0006" data-entity-2="ent0005" data-link-type="dependency" data-source-line="22" id="lnk15"><path d="M766.37,214.36 C816.94,209.45 871.76,202.73 921.9,193.65 C932.81,191.67 938.4479,190.5603 949.5679,187.7903" fill="none" id="System-to-Notify" style="stroke:#E7E7E7;stroke-width:1;"/><polygon fill="#E7E7E7" points="955.39,186.34,945.69,184.634,950.5383,187.5486,947.6237,192.3968,955.39,186.34" style="stroke:#E7E7E7;stroke-width:1;"/><text fill="#FFFFFF" font-family="sans-serif" font-size="13" lengthAdjust="spacing" textLength="37.7178" x="840.2232" y="174.7169">Alerts</text><text fill="#FFFFFF" font-family="sans-serif" font-size="13" lengthAdjust="spacing" textLength="81.3643" x="818.4" y="189.8497">Notifications</text></g><!--link System to D1--><g class="link" data-entity-1="ent0006" data-entity-2="ent0007" data-link-type="dependency" data-source-line="24" id="lnk16"><path d="M672.3874,246.5066 C711.3074,254.4966 752.83,261.7 795.9,265.65 C851.66,270.77 865.9,266.48 921.9,265.65 C940.52,265.38 955.083,264.9999 972.763,264.4399" fill="none" id="System-D1" style="stroke:#E7E7E7;stroke-width:1;"/><polygon fill="#E7E7E7" points="666.51,245.3,674.5217,251.0282,671.4079,246.3055,676.1305,243.1916,666.51,245.3" style="stroke:#E7E7E7;stroke-width:1;"/><polygon fill="#E7E7E7" points="978.76,264.25,969.6379,260.5369,973.7625,264.4083,969.8911,268.5329,978.76,264.25" style="stroke:#E7E7E7;stroke-width:1;"/><text fill="#FFFFFF" font-family="sans-serif" font-size="13" lengthAdjust="spacing" textLength="84.9316" x="816.9" y="246.7169">Read / Write,</text><text fill="#FFFFFF" font-family="sans-serif" font-size="13" lengthAdjust="spacing" textLength="58.3667" x="830.1825" y="261.8497">User Info</text></g><!--link System to D2--><g class="link" data-entity-1="ent0006" data-entity-2="ent0008" data-link-type="dependency" data-source-line="25" id="lnk17"><path d="M645.5259,247.0861 C687.8359,261.0961 742.37,278.41 795.9,292.65 C868.29,311.92 949.1704,328.3741 991.4704,336.6041" fill="none" id="System-D2" style="stroke:#E7E7E7;stroke-width:1;"/><polygon fill="#E7E7E7" points="639.83,245.2,647.1164,251.8263,644.5765,246.7717,649.6312,244.2318,639.83,245.2" style="stroke:#E7E7E7;stroke-width:1;"/><polygon fill="#E7E7E7" points="997.36,337.75,989.2896,332.1048,992.452,336.7951,987.7617,339.9575,997.36,337.75" style="stroke:#E7E7E7;stroke-width:1;"/><text fill="#FFFFFF" font-family="sans-serif" font-size="13" lengthAdjust="spacing" textLength="68.999" x="824.9" y="288.7169">Store Logs</text></g><!--link System to D3--><g class="link" data-entity-1="ent0006" data-entity-2="ent0009" data-link-type="dependency" data-source-line="26" id="lnk18"><path d="M618.6258,248.431 C658.2458,273.751 727.87,316.25 795.9,346.65 C846.59,369.31 900.4541,387.2723 945.8841,400.9323" fill="none" id="System-D3" style="stroke:#E7E7E7;stroke-width:1;"/><polygon fill="#E7E7E7" points="613.57,245.2,618.9996,253.417,617.7831,247.8925,623.3076,246.676,613.57,245.2" style="stroke:#E7E7E7;stroke-width:1;"/><polygon fill="#E7E7E7" points="951.63,402.66,944.163,396.2379,946.8418,401.2203,941.8594,403.8991,951.63,402.66" style="stroke:#E7E7E7;stroke-width:1;"/><text fill="#FFFFFF" font-family="sans-serif" font-size="13" lengthAdjust="spacing" textLength="73.0361" x="822.4" y="342.7169">Read Rules</text></g><?plantuml-src LL7BRW8n3BpdAonEhLI40FM2gagKlI3HXw2ForxINGDMimvAd5RqwvjaTzNbvdWcundRu5v0B3Ww70LgSbW9MLR-Y_YadMx0sS1rPHsZW-cjKheIws3qvj6LVBMi6sAOmFC9dKx017OXrj_ahRiUWVQGcFsl7NBi-zplwXvwrDMH6AF0osQL2Lsd9pnPeJrLElcBd-E82ZCl0sUbadVD1uCmAkX0eWsy_X2F7xJ76jPS1o-EOdSPn3QTpjaBDgsVN2fLQz6VyKkR4Ohup7Wn7K0RUsXJ5BD1To2y3GOxnbofh3GUttT3O05HWBZabMLnraHtfo2gGnCn_rZ0E_cW3VrcqPkITw8b-5HG4qmt2dqmebItqCivRJEdKFsABmXbTD43hVhGHeyie7UwiasZkVPgI6jF45bBWqvyoSDZ_LFl4hUOHjuMTHrF_U58CAR9QTUyjvVCMGeGZuzfNVuIc_SgUTD_?></g></svg>