<?plantuml 1.2026.2beta3?><svg xmlns="http://www.w3.org/2000/svg" xmlns:xlink="http://www.w3.org/1999/xlink" contentStyleType="text/css" data-diagram-type="DESCRIPTION" height="694px" preserveAspectRatio="none" style="width:2701px;height:694px;background:#1B1B1B;" version="1.1" viewBox="0 0 2701 694" width="2701px" zoomAndPan="magnify"><defs/><g><rect fill="#1B1B1B" height="694" style="stroke:none;stroke-width:1;" width="2701" x="0" y="0"/><!--entity User--><g class="entity" data-qualified-name="User" data-source-line="6" id="ent0002"><ellipse cx="1094.8066" cy="325.7659" fill="#313139" rx="8" ry="8" style="stroke:#E7E7E7;stroke-width:0.5;"/><path d="M1094.8066,333.7659 L1094.8066,360.7659 M1081.8066,341.7659 L1107.8066,341.7659 M1094.8066,360.7659 L1081.8066,375.7659 M1094.8066,360.7659 L1107.8066,375.7659" fill="none" style="stroke:#E7E7E7;stroke-width:0.5;"/><text fill="#FFFFFF" font-family="sans-serif" font-size="14" lengthAdjust="spacing" textLength="31.9102" x="984.56" y="390.261">User</text><text fill="#FFFFFF" font-family="sans-serif" font-size="14" lengthAdjust="spacing" textLength="220.4932" x="984.56" y="406.5579">(Admin / Supervisor / Operator)</text></g><!--entity Sensors--><g class="entity" data-qualified-name="Sensors" data-source-line="7" id="ent0003"><ellipse cx="33.6411" cy="85.9159" fill="#313139" rx="8" ry="8" style="stroke:#E7E7E7;stroke-width:0.5;"/><path d="M33.6411,93.9159 L33.6411,120.9159 M20.6411,101.9159 L46.6411,101.9159 M33.6411,120.9159 L20.6411,135.9159 M33.6411,120.9159 L46.6411,135.9159" fill="none" style="stroke:#E7E7E7;stroke-width:0.5;"/><text fill="#FFFFFF" font-family="sans-serif" font-size="14" lengthAdjust="spacing" textLength="55.2822" x="6" y="150.411">Sensors</text></g><!--entity PLC--><g class="entity" data-qualified-name="PLC" data-source-line="8" id="ent0004"><ellipse cx="2427.4466" cy="327.9159" fill="#313139" rx="8" ry="8" style="stroke:#E7E7E7;stroke-width:0.5;"/><path d="M2427.4466,335.9159 L2427.4466,362.9159 M2414.4466,343.9159 L2440.4466,343.9159 M2427.4466,362.9159 L2414.4466,377.9159 M2427.4466,362.9159 L2440.4466,377.9159" fill="none" style="stroke:#E7E7E7;stroke-width:0.5;"/><text fill="#FFFFFF" font-family="sans-serif" font-size="14" lengthAdjust="spacing" textLength="105.5332" x="2374.68" y="392.411">Machines / PLC</text></g><!--entity Notify--><g class="entity" data-qualified-name="Notify" data-source-line="9" id="ent0005"><ellipse cx="2427.4503" cy="511.9159" fill="#313139" rx="8" ry="8" style="stroke:#E7E7E7;stroke-width:0.5;"/><path d="M2427.4503,519.9159 L2427.4503,546.9159 M2414.4503,527.9159 L2440.4503,527.9159 M2427.4503,546.9159 L2414.4503,561.9159 M2427.4503,546.9159 L2440.4503,561.9159" fill="none" style="stroke:#E7E7E7;stroke-width:0.5;"/><text fill="#FFFFFF" font-family="sans-serif" font-size="14" lengthAdjust="spacing" textLength="136.5205" x="2359.19" y="576.411">Notification Service</text></g><!--entity Auth--><g class="entity" data-qualified-name="Auth" data-source-line="12" id="ent0006"><rect fill="#313139" height="36.2969" rx="2.5" ry="2.5" style="stroke:#E7E7E7;stroke-width:0.5;" width="236.3574" x="1443.05" y="475.4159"/><text fill="#FFFFFF" font-family="sans-serif" font-size="14" lengthAdjust="spacing" textLength="216.3574" x="1453.05" y="498.411">Authentication &amp; Authorization</text></g><!--entity MDA--><g class="entity" data-qualified-name="MDA" data-source-line="13" id="ent0007"><rect fill="#313139" height="36.2969" rx="2.5" ry="2.5" style="stroke:#E7E7E7;stroke-width:0.5;" width="197.8574" x="226.28" y="97.4159"/><text fill="#FFFFFF" font-family="sans-serif" font-size="14" lengthAdjust="spacing" textLength="177.8574" x="236.28" y="120.411">Machine Data Acquisition</text></g><!--entity CCP--><g class="entity" data-qualified-name="CCP" data-source-line="14" id="ent0008"><rect fill="#313139" height="36.2969" rx="2.5" ry="2.5" style="stroke:#E7E7E7;stroke-width:0.5;" width="242.4482" x="1863.41" y="320.4159"/><text fill="#FFFFFF" font-family="sans-serif" font-size="14" lengthAdjust="spacing" textLength="222.4482" x="1873.41" y="343.411">Control &amp; Command Processing</text></g><!--entity ARE--><g class="entity" data-qualified-name="ARE" data-source-line="15" id="ent0009"><rect fill="#313139" height="36.2969" rx="2.5" ry="2.5" style="stroke:#E7E7E7;stroke-width:0.5;" width="204.8916" x="1458.79" y="241.4159"/><text fill="#FFFFFF" font-family="sans-serif" font-size="14" lengthAdjust="spacing" textLength="184.8916" x="1468.79" y="264.411">Automation &amp; Rule Engine</text></g><!--entity VM--><g class="entity" data-qualified-name="VM" data-source-line="16" id="ent0010"><rect fill="#313139" height="36.2969" rx="2.5" ry="2.5" style="stroke:#E7E7E7;stroke-width:0.5;" width="203.4219" x="578.14" y="168.4159"/><text fill="#FFFFFF" font-family="sans-serif" font-size="14" lengthAdjust="spacing" textLength="183.4219" x="588.14" y="191.411">Visualization &amp; Monitoring</text></g><!--entity ANH--><g class="entity" data-qualified-name="ANH" data-source-line="17" id="ent0011"><rect fill="#313139" height="36.2969" rx="2.5" ry="2.5" style="stroke:#E7E7E7;stroke-width:0.5;" width="220.3271" x="1874.47" y="430.4159"/><text fill="#FFFFFF" font-family="sans-serif" font-size="14" lengthAdjust="spacing" textLength="200.3271" x="1884.47" y="453.411">Alert &amp; Notification Handling</text></g><!--entity LA--><g class="entity" data-qualified-name="LA" data-source-line="18" id="ent0012"><rect fill="#313139" height="36.2969" rx="2.5" ry="2.5" style="stroke:#E7E7E7;stroke-width:0.5;" width="159.1797" x="2347.86" y="152.4159"/><text fill="#FFFFFF" font-family="sans-serif" font-size="14" lengthAdjust="spacing" textLength="139.1797" x="2357.86" y="175.411">Logging &amp; Analytics</text></g><!--entity UserDB--><g class="entity" data-qualified-name="UserDB" data-source-line="21" id="ent0013"><path d="M1939.74,520.9159 C1939.74,510.9159 1984.634,510.9159 1984.634,510.9159 C1984.634,510.9159 2029.5281,510.9159 2029.5281,520.9159 L2029.5281,546.2128 C2029.5281,556.2128 1984.634,556.2128 1984.634,556.2128 C1984.634,556.2128 1939.74,556.2128 1939.74,546.2128 L1939.74,520.9159" fill="#313139" style="stroke:#E7E7E7;stroke-width:0.5;"/><path d="M1939.74,520.9159 C1939.74,530.9159 1984.634,530.9159 1984.634,530.9159 C1984.634,530.9159 2029.5281,530.9159 2029.5281,520.9159" fill="none" style="stroke:#E7E7E7;stroke-width:0.5;"/><text fill="#FFFFFF" font-family="sans-serif" font-size="14" lengthAdjust="spacing" textLength="69.7881" x="1949.74" y="547.911">User Data</text></g><!--entity RulesDB--><g class="entity" data-qualified-name="RulesDB" data-source-line="22" id="ent0014"><path d="M1912.44,157.9159 C1912.44,147.9159 1984.6334,147.9159 1984.6334,147.9159 C1984.6334,147.9159 2056.8267,147.9159 2056.8267,157.9159 L2056.8267,183.2128 C2056.8267,193.2128 1984.6334,193.2128 1984.6334,193.2128 C1984.6334,193.2128 1912.44,193.2128 1912.44,183.2128 L1912.44,157.9159" fill="#313139" style="stroke:#E7E7E7;stroke-width:0.5;"/><path d="M1912.44,157.9159 C1912.44,167.9159 1984.6334,167.9159 1984.6334,167.9159 C1984.6334,167.9159 2056.8267,167.9159 2056.8267,157.9159" fill="none" style="stroke:#E7E7E7;stroke-width:0.5;"/><text fill="#FFFFFF" font-family="sans-serif" font-size="14" lengthAdjust="spacing" textLength="124.3867" x="1922.44" y="184.911">Automation Rules</text></g><!--entity LogsDB--><g class="entity" data-qualified-name="LogsDB" data-source-line="23" id="ent0015"><path d="M2632.04,157.9159 C2632.04,147.9159 2658.3129,147.9159 2658.3129,147.9159 C2658.3129,147.9159 2684.5859,147.9159 2684.5859,157.9159 L2684.5859,183.2128 C2684.5859,193.2128 2658.3129,193.2128 2658.3129,193.2128 C2658.3129,193.2128 2632.04,193.2128 2632.04,183.2128 L2632.04,157.9159" fill="#313139" style="stroke:#E7E7E7;stroke-width:0.5;"/><path d="M2632.04,157.9159 C2632.04,167.9159 2658.3129,167.9159 2658.3129,167.9159 C2658.3129,167.9159 2684.5859,167.9159 2684.5859,157.9159" fill="none" style="stroke:#E7E7E7;stroke-width:0.5;"/><text fill="#FFFFFF" font-family="sans-serif" font-size="14" lengthAdjust="spacing" textLength="32.5459" x="2642.04" y="184.911">Logs</text></g><!--link User to Auth--><g class="link" data-entity-1="ent0002" data-entity-2="ent0006" data-link-type="dependency" data-source-line="26" id="lnk16"><path d="M1140.23,410.2659 C1165.58,433.6859 1199.37,459.9259 1235.05,473.5659 C1300.7,498.6459 1373.2308,504.1943 1436.6608,503.1543" fill="none" id="User-to-Auth" style="stroke:#E7E7E7;stroke-width:1;"/><polygon fill="#E7E7E7" points="1442.66,503.0559,1433.5956,499.204,1437.6607,503.1379,1433.7268,507.2029,1442.66,503.0559" style="stroke:#E7E7E7;stroke-width:1;"/><text fill="#FFFFFF" font-family="sans-serif" font-size="13" lengthAdjust="spacing" textLength="107.8403" x="1270.55" y="469.6328">login credentials</text></g><!--link Auth to User--><g class="link" data-entity-1="ent0006" data-entity-2="ent0002" data-link-type="dependency" data-source-line="29" id="lnk19"><path d="M1493.84,474.9759 C1418.61,453.9159 1300.6279,420.8931 1211.0579,395.8231" fill="none" id="Auth-to-User" style="stroke:#E7E7E7;stroke-width:1;"/><polygon fill="#E7E7E7" points="1205.28,394.2059,1212.8688,400.4837,1210.095,395.5536,1215.0251,392.7798,1205.28,394.2059" style="stroke:#E7E7E7;stroke-width:1;"/><text fill="#FFFFFF" font-family="sans-serif" font-size="13" lengthAdjust="spacing" textLength="156.0825" x="1246.05" y="401.6328">access granted / denied</text></g><!--link Auth to UserDB--><g class="link" data-entity-1="ent0006" data-entity-2="ent0013" data-link-type="dependency" data-source-line="27" id="lnk17"><path d="M1679.9,504.7259 C1766.1,512.9159 1872.3268,522.9993 1933.3668,528.7893" fill="none" id="Auth-to-UserDB" style="stroke:#E7E7E7;stroke-width:1;"/><polygon fill="#E7E7E7" points="1939.34,529.3559,1930.7579,524.5239,1934.3623,528.8838,1930.0025,532.4882,1939.34,529.3559" style="stroke:#E7E7E7;stroke-width:1;"/><text fill="#FFFFFF" font-family="sans-serif" font-size="13" lengthAdjust="spacing" textLength="69.4053" x="1736.91" y="503.6328">verify user</text></g><!--link UserDB to Auth--><g class="link" data-entity-1="ent0013" data-entity-2="ent0006" data-link-type="dependency" data-source-line="28" id="lnk18"><path d="M1939.61,540.1859 C1885.16,547.1959 1789.82,555.5959 1709.41,542.5659 C1673.52,536.7459 1640.1473,525.6228 1611.3273,514.3428" fill="none" id="UserDB-to-Auth" style="stroke:#E7E7E7;stroke-width:1;"/><polygon fill="#E7E7E7" points="1605.74,512.1559,1612.663,519.161,1610.3961,513.9783,1615.5788,511.7113,1605.74,512.1559" style="stroke:#E7E7E7;stroke-width:1;"/><text fill="#FFFFFF" font-family="sans-serif" font-size="13" lengthAdjust="spacing" textLength="70.7383" x="1736.41" y="538.6328">auth result</text></g><!--link VM to User--><g class="link" data-entity-1="ent0010" data-entity-2="ent0002" data-link-type="dependency" data-source-line="31" id="lnk20"><path d="M722.27,205.1759 C747.93,216.6459 781.6,231.5959 811.56,244.5659 C868.42,269.1559 926.4465,293.6965 978.8365,315.6565" fill="none" id="VM-to-User" style="stroke:#E7E7E7;stroke-width:1;"/><polygon fill="#E7E7E7" points="984.37,317.9759,977.616,310.8077,979.7587,316.043,974.5234,318.1858,984.37,317.9759" style="stroke:#E7E7E7;stroke-width:1;"/><text fill="#FFFFFF" font-family="sans-serif" font-size="13" lengthAdjust="spacing" textLength="141.9844" x="812.56" y="225.6328">Visualization, Metrics,</text><text fill="#FFFFFF" font-family="sans-serif" font-size="13" lengthAdjust="spacing" textLength="117.2158" x="827.0104" y="240.7656">Simulation results</text></g><!--link User to CCP--><g class="link" data-entity-1="ent0002" data-entity-2="ent0008" data-link-type="dependency" data-source-line="33" id="lnk21"><path d="M1205.12,360.4859 C1372.09,355.7859 1683.5224,347.015 1857.0124,342.125" fill="none" id="User-to-CCP" style="stroke:#E7E7E7;stroke-width:1;"/><polygon fill="#E7E7E7" points="1863.01,341.9559,1853.9009,338.2111,1858.012,342.0968,1854.1263,346.2079,1863.01,341.9559" style="stroke:#E7E7E7;stroke-width:1;"/><text fill="#FFFFFF" font-family="sans-serif" font-size="13" lengthAdjust="spacing" textLength="121.1387" x="1500.73" y="342.6328">control commands</text></g><!--link User to ARE--><g class="link" data-entity-1="ent0002" data-entity-2="ent0009" data-link-type="dependency" data-source-line="35" id="lnk22"><path d="M1205.21,325.7959 C1215.25,322.8259 1225.31,320.0259 1235.05,317.5659 C1308.99,298.8559 1387.9513,284.858 1452.4413,274.828" fill="none" id="User-to-ARE" style="stroke:#E7E7E7;stroke-width:1;"/><polygon fill="#E7E7E7" points="1458.37,273.9059,1448.8622,271.3366,1453.4294,274.6743,1450.0916,279.2415,1458.37,273.9059" style="stroke:#E7E7E7;stroke-width:1;"/><text fill="#FFFFFF" font-family="sans-serif" font-size="13" lengthAdjust="spacing" textLength="176.3823" x="1236.05" y="277.6328">configure automation rules</text></g><!--link Sensors to MDA--><g class="link" data-entity-1="ent0003" data-entity-2="ent0007" data-link-type="dependency" data-source-line="38" id="lnk23"><path d="M61.62,115.5659 C98.83,115.5659 161.87,115.5659 219.82,115.5659" fill="none" id="Sensors-to-MDA" style="stroke:#E7E7E7;stroke-width:1;"/><polygon fill="#E7E7E7" points="225.82,115.5659,216.82,111.5659,220.82,115.5659,216.82,119.5659,225.82,115.5659" style="stroke:#E7E7E7;stroke-width:1;"/><text fill="#FFFFFF" font-family="sans-serif" font-size="13" lengthAdjust="spacing" textLength="103.6509" x="92.28" y="111.6328">sensor readings</text></g><!--link MDA to VM--><g class="link" data-entity-1="ent0007" data-entity-2="ent0010" data-link-type="dependency" data-source-line="39" id="lnk24"><path d="M373.85,134.1059 C397.65,142.7159 427.07,152.3859 454.14,158.5659 C494.1,167.6659 532.8163,173.3472 571.7463,177.6472" fill="none" id="MDA-to-VM" style="stroke:#E7E7E7;stroke-width:1;"/><polygon fill="#E7E7E7" points="577.71,178.3059,569.2036,173.342,572.7402,177.757,568.3253,181.2937,577.71,178.3059" style="stroke:#E7E7E7;stroke-width:1;"/><text fill="#FFFFFF" font-family="sans-serif" font-size="13" lengthAdjust="spacing" textLength="92.3965" x="455.14" y="154.6328">real-time data</text></g><!--link MDA to ARE--><g class="link" data-entity-1="ent0007" data-entity-2="ent0009" data-link-type="dependency" data-source-line="40" id="lnk25"><path d="M424.53,121.3459 C516.86,127.1859 658.79,137.2659 781.56,150.5659 C1025.16,176.9459 1304.0527,218.9845 1452.5227,242.3145" fill="none" id="MDA-to-ARE" style="stroke:#E7E7E7;stroke-width:1;"/><polygon fill="#E7E7E7" points="1458.45,243.2459,1450.18,237.8973,1453.5106,242.4698,1448.9382,245.8003,1458.45,243.2459" style="stroke:#E7E7E7;stroke-width:1;"/><text fill="#FFFFFF" font-family="sans-serif" font-size="13" lengthAdjust="spacing" textLength="4.1323" x="881.4658" y="134.6328">&#160;</text><text fill="#FFFFFF" font-family="sans-serif" font-size="13" lengthAdjust="spacing" textLength="99.9438" x="833.56" y="149.7656">machine status</text></g><!--link ARE to RulesDB--><g class="link" data-entity-1="ent0009" data-entity-2="ent0014" data-link-type="dependency" data-source-line="43" id="lnk26"><path d="M1631.4592,239.3834 C1657.2992,232.1734 1681.77,225.7759 1709.41,219.5659 C1777.71,204.2059 1850.5268,191.5127 1906.0568,182.5427" fill="none" id="ARE-RulesDB" style="stroke:#E7E7E7;stroke-width:1;"/><polygon fill="#E7E7E7" points="1625.68,240.9959,1635.4239,242.4299,1630.496,239.6521,1633.2738,234.7243,1625.68,240.9959" style="stroke:#E7E7E7;stroke-width:1;"/><polygon fill="#E7E7E7" points="1911.98,181.5859,1902.4573,179.0723,1907.044,182.3833,1903.733,186.9699,1911.98,181.5859" style="stroke:#E7E7E7;stroke-width:1;"/><text fill="#FFFFFF" font-family="sans-serif" font-size="13" lengthAdjust="spacing" textLength="78.7109" x="1732.41" y="191.6328">rule storage</text></g><!--link ARE to CCP--><g class="link" data-entity-1="ent0009" data-entity-2="ent0008" data-link-type="dependency" data-source-line="44" id="lnk27"><path d="M1655.63,278.1659 C1673.47,281.6659 1692.01,285.2559 1709.41,288.5659 C1765.52,299.2059 1822.2556,309.5889 1873.4956,318.8489" fill="none" id="ARE-to-CCP" style="stroke:#E7E7E7;stroke-width:1;"/><polygon fill="#E7E7E7" points="1879.4,319.9159,1871.2548,314.3791,1874.4797,319.0267,1869.8321,322.2516,1879.4,319.9159" style="stroke:#E7E7E7;stroke-width:1;"/><text fill="#FFFFFF" font-family="sans-serif" font-size="13" lengthAdjust="spacing" textLength="122.1543" x="1710.41" y="284.6328">automated actions</text></g><!--link CCP to PLC--><g class="link" data-entity-1="ent0008" data-entity-2="ent0004" data-link-type="dependency" data-source-line="47" id="lnk28"><path d="M2101.09,357.1959 C2112.81,358.5659 2124.56,359.7359 2135.86,360.5659 C2216.54,366.4359 2236.98,361.6759 2317.86,360.5659 C2336.25,360.3059 2350.3825,359.9903 2368.2625,359.4703" fill="none" id="CCP-to-PLC" style="stroke:#E7E7E7;stroke-width:1;"/><polygon fill="#E7E7E7" points="2374.26,359.2959,2365.1475,355.5592,2369.2621,359.4413,2365.3801,363.5559,2374.26,359.2959" style="stroke:#E7E7E7;stroke-width:1;"/><text fill="#FFFFFF" font-family="sans-serif" font-size="13" lengthAdjust="spacing" textLength="180.6289" x="2136.86" y="341.6328">Real Time operational data,</text><text fill="#FFFFFF" font-family="sans-serif" font-size="13" lengthAdjust="spacing" textLength="150.3188" x="2152.015" y="356.7656">Receive control signals</text></g><!--link MDA to LA--><g class="link" data-entity-1="ent0007" data-entity-2="ent0012" data-link-type="dependency" data-source-line="50" id="lnk29"><path d="M368.71,96.9459 C434.04,70.0559 563.7,23.5659 678.85,23.5659 C678.85,23.5659 678.85,23.5659 1985.64,23.5659 C2146.18,23.5659 2318.2485,109.4659 2389.2585,149.0259" fill="none" id="MDA-to-LA" style="stroke:#E7E7E7;stroke-width:1;"/><polygon fill="#E7E7E7" points="2394.5,151.9459,2388.5845,144.0715,2390.1321,149.5125,2384.6911,151.0602,2394.5,151.9459" style="stroke:#E7E7E7;stroke-width:1;"/><text fill="#FFFFFF" font-family="sans-serif" font-size="13" lengthAdjust="spacing" textLength="86.5884" x="1281.05" y="19.6328">machine logs</text></g><!--link CCP to LA--><g class="link" data-entity-1="ent0008" data-entity-2="ent0012" data-link-type="dependency" data-source-line="51" id="lnk30"><path d="M2106.08,324.3859 C2193.28,313.4559 2299.03,298.5659 2317.86,288.5659 C2362.37,264.9259 2394.9806,220.7763 2412.1706,193.9763" fill="none" id="CCP-to-LA" style="stroke:#E7E7E7;stroke-width:1;"/><polygon fill="#E7E7E7" points="2415.41,188.9259,2407.184,194.3419,2412.7105,193.1346,2413.9178,198.6611,2415.41,188.9259" style="stroke:#E7E7E7;stroke-width:1;"/><text fill="#FFFFFF" font-family="sans-serif" font-size="13" lengthAdjust="spacing" textLength="76.0703" x="2188.86" y="284.6328">control logs</text></g><!--link ARE to LA--><g class="link" data-entity-1="ent0009" data-entity-2="ent0012" data-link-type="dependency" data-source-line="52" id="lnk31"><path d="M1663.99,257.1259 C1773.45,253.6859 1952.46,245.6459 2105.86,227.5659 C2188.81,217.7759 2276.9184,201.4921 2341.5784,188.4521" fill="none" id="ARE-to-LA" style="stroke:#E7E7E7;stroke-width:1;"/><polygon fill="#E7E7E7" points="2347.46,187.2659,2337.8469,185.1241,2342.5587,188.2544,2339.4284,192.9662,2347.46,187.2659" style="stroke:#E7E7E7;stroke-width:1;"/><text fill="#FFFFFF" font-family="sans-serif" font-size="13" lengthAdjust="spacing" textLength="105.5107" x="1932.14" y="223.6328">automation logs</text></g><!--link LA to LogsDB--><g class="link" data-entity-1="ent0012" data-entity-2="ent0015" data-link-type="dependency" data-source-line="53" id="lnk32"><path d="M2513.53,170.5659 C2556.94,170.5659 2595.88,170.5659 2625.77,170.5659" fill="none" id="LA-LogsDB" style="stroke:#E7E7E7;stroke-width:1;"/><polygon fill="#E7E7E7" points="2507.53,170.5659,2516.53,174.5659,2512.53,170.5659,2516.53,166.5659,2507.53,170.5659" style="stroke:#E7E7E7;stroke-width:1;"/><polygon fill="#E7E7E7" points="2631.77,170.5659,2622.77,166.5659,2626.77,170.5659,2622.77,174.5659,2631.77,170.5659" style="stroke:#E7E7E7;stroke-width:1;"/><text fill="#FFFFFF" font-family="sans-serif" font-size="13" lengthAdjust="spacing" textLength="63.8892" x="2538.04" y="166.6328">store logs</text></g><!--link VM to LA--><g class="link" data-entity-1="ent0010" data-entity-2="ent0012" data-link-type="dependency" data-source-line="54" id="lnk33"><path d="M787.9377,179.5318 C1068.6477,161.5218 1847.86,114.5259 2105.86,130.5659 C2188.71,135.7059 2276.986,147.3887 2341.726,157.0687" fill="none" id="VM-LA" style="stroke:#E7E7E7;stroke-width:1;"/><polygon fill="#E7E7E7" points="781.95,179.9159,791.1876,183.3315,786.9397,179.5958,790.6754,175.3479,781.95,179.9159" style="stroke:#E7E7E7;stroke-width:1;"/><polygon fill="#E7E7E7" points="2347.66,157.9559,2339.3505,152.669,2342.715,157.2165,2338.1674,160.581,2347.66,157.9559" style="stroke:#E7E7E7;stroke-width:1;"/></g><!--link ARE to ANH--><g class="link" data-entity-1="ent0009" data-entity-2="ent0011" data-link-type="dependency" data-source-line="57" id="lnk34"><path d="M1619.05,278.1959 C1640.29,287.5159 1663.17,300.6959 1679.41,318.5659 C1704.12,345.7359 1681.21,372.0359 1709.41,395.5659 C1754.84,433.4459 1813.2665,446.8219 1868.2465,450.9019" fill="none" id="ARE-to-ANH" style="stroke:#E7E7E7;stroke-width:1;"/><polygon fill="#E7E7E7" points="1874.23,451.3459,1865.5507,446.6908,1869.2437,450.9759,1864.9587,454.6689,1874.23,451.3459" style="stroke:#E7E7E7;stroke-width:1;"/><text fill="#FFFFFF" font-family="sans-serif" font-size="13" lengthAdjust="spacing" textLength="4.1323" x="1769.3692" y="331.6328">&#160;</text><text fill="#FFFFFF" font-family="sans-serif" font-size="13" lengthAdjust="spacing" textLength="4.1323" x="1769.3692" y="346.7656">&#160;</text><text fill="#FFFFFF" font-family="sans-serif" font-size="13" lengthAdjust="spacing" textLength="4.1323" x="1769.3692" y="361.8984">&#160;</text><text fill="#FFFFFF" font-family="sans-serif" font-size="13" lengthAdjust="spacing" textLength="4.1323" x="1769.3692" y="377.0313">&#160;</text><text fill="#FFFFFF" font-family="sans-serif" font-size="13" lengthAdjust="spacing" textLength="78.0508" x="1732.41" y="392.1641">alert trigger</text></g><!--link ANH to Notify--><g class="link" data-entity-1="ent0011" data-entity-2="ent0005" data-link-type="dependency" data-source-line="58" id="lnk35"><path d="M2073.78,467.1559 C2157.83,484.8859 2276.7093,509.9672 2353.1093,526.0872" fill="none" id="ANH-to-Notify" style="stroke:#E7E7E7;stroke-width:1;"/><polygon fill="#E7E7E7" points="2358.98,527.3259,2350.9997,521.554,2354.0877,526.2937,2349.3481,529.3817,2358.98,527.3259" style="stroke:#E7E7E7;stroke-width:1;"/><text fill="#FFFFFF" font-family="sans-serif" font-size="13" lengthAdjust="spacing" textLength="65.4126" x="2194.36" y="476.6328">send alert</text></g><!--link Notify to User--><g class="link" data-entity-1="ent0005" data-entity-2="ent0002" data-link-type="dependency" data-source-line="59" id="lnk36"><path d="M2358.74,550.2959 C2293.96,558.1859 2193.43,569.2059 2105.86,573.5659 C1718.3,592.8559 1580.62,687.0759 1235.05,510.5659 C1189.98,487.5359 1155.1191,448.719 1130.1291,414.949" fill="none" id="Notify-to-User" style="stroke:#E7E7E7;stroke-width:1;"/><polygon fill="#E7E7E7" points="1126.56,410.1259,1128.6983,419.7399,1129.5342,414.1451,1135.129,414.9811,1126.56,410.1259" style="stroke:#E7E7E7;stroke-width:1;"/><text fill="#FFFFFF" font-family="sans-serif" font-size="13" lengthAdjust="spacing" textLength="73.106" x="1734.91" y="594.6328">notification</text></g><?plantuml-src NLJBRjim4BphAnOvz04aoDre2xYEYnoiDB1RdtnX9LecGf4fIILDlxwpf2XHjG-ITcTViqDgUGuKB3dLNGAroiacA6ig_wJCit2YfsVHF8bE7iARbiHkOJej2u2_YDQ-AjFHMMWlg-ezVSQFjd-2T4PesfgWWf8-cYlH1ElewgUNxcG-hDjU6Rgbm_0itOloSDtITxmBe3vUaV34o1nra0OG7-tZUtRLehaeWogtzBZRH0IUsVjWWpghHl1mY4IfHaPCTBnDJM-ia_JeR2EzpnrFGzFLUWWNYN76HE-83TQfl_4x9cHB6JBsHNSY25etlmVbrGIkxzObTcDDS5OZxyRslJ1jRWNiHlncy_XVExRFhUm7cBQcGx7Ko7vROe_A3qAFdG9UMwD0JSvyh1U9jNG1e0LjzsX8P_pwuRuCsDckOmc04Qpy3Gob9UtM4xMHW0DAPbvR67u9BvCOedzQ-DtNmbsCoKEcpF5j0KCFOr6ym9CBn-pVj7rDPUFdpSsNk2bQaRRed1edMzui95n51oDI9y2yI0ULqC1I78r51i4FZ3Nei8nbNyFxeyu94sGBSQAAacrL7Ui9jbhivffg6Hm8l3v1ggeVT1ez5V1KpHD03YZHZAffacPy0O064k2ikW7A5ZEJZlcRE5geTEPgF6Cn5xIAN3vQq8neiMzViPMz66V5LdqJL2-9jpBvKXSdquz5V11Xc6iNwvqhSymd3XxtpDbPu1u2mdKK_JC5urmWMCJxonS7Ef4pP-O8ZiJjWCWzMgOVtBADjmw2OU3sGVzUDbAzo8bXhph30id9i-hdv7da7NELvuN2_5GsUdB2wCcZH4-neUY4CTAGDCqBu1EKVCUQNSKHIyTsIM9SmCCzhKuc_KK4GM5T1pMpYo7f7amB1ekCgKPReMPJt0V_0000?></g></svg>